<?xml version="1.0" standalone="no"?>
<svg viewBox="0 0 200 200" xmlns="http://www.w3.org/2000/svg">
  <path fill="#192734" d="M43.3,-75.7C57.1,-67.1,69.8,-57.4,78.4,-44.6C86.9,-31.8,91.2,-15.9,91.3,0C91.4,16,87.2,32,78.7,44.7C70.1,57.4,57.1,66.9,43.2,75.4C29.4,83.9,14.7,91.5,-0.4,92.2C-15.4,92.8,-30.8,86.5,-44.9,78.1C-59,69.7,-71.6,59.2,-80.6,45.8C-89.5,32.5,-94.7,16.2,-94.7,0C-94.7,-16.2,-89.5,-32.5,-80.2,-45.2C-71,-57.9,-57.5,-67.1,-43.4,-75.6C-29.4,-84.1,-14.7,-91.9,0,-91.9C14.8,-92,29.5,-84.4,43.3,-75.7Z" transform="translate(100 100)" />
</svg>
